<svg xmlns="http://www.w3.org/2000/svg" width="21" height="21" viewBox="0 0 21 21">
    <defs>
        <filter id="88rwahpzia" width="21" height="21" x="0" y="0" filterUnits="userSpaceOnUse">
            <feOffset dy="1"/>
            <feGaussianBlur result="blur" stdDeviation="1"/>
            <feFlood flood-opacity=".161"/>
            <feComposite in2="blur" operator="in"/>
            <feComposite in="SourceGraphic"/>
        </filter>
    </defs>
    <g>
        <g filter="url(#88rwahpzia)" transform="translate(-220 -37) translate(220 37)">
            <circle cx="7.5" cy="7.5" r="7.5" fill="#fff" transform="translate(3 2)"/>
        </g>
        <path fill="#6e6d72" d="M9 4.364a3.985 3.985 0 0 1-.155 1.091h-.764a3.241 3.241 0 0 0 .191-1.091A3.276 3.276 0 0 0 5 1.091a3.235 3.235 0 0 0-1.693.478l.676.977H1.44L2.222 0l.672.972A3.988 3.988 0 0 1 9 4.364zm-2.311 2.8A3.238 3.238 0 0 1 5 7.636a3.264 3.264 0 0 1-3.082-4.363h-.763A3.989 3.989 0 0 0 7.1 7.757l.674.97.783-2.541H6.015l.675.975z" transform="translate(-220 -37) translate(225.5 42)"/>
    </g>
</svg>
