<svg xmlns="http://www.w3.org/2000/svg" width="24" height="24" viewBox="0 0 24 24">
    <g>
        <path fill="none" d="M0 0H24V24H0z" opacity="0.2" transform="translate(-282 -10) rotate(180 153 17)"/>
        <g fill="#fff">
            <path d="M-3467.085-8177.086l-2.253-2.252 2.253 2.252zm-7.416-2.414c-2.756 0-4.998-2.243-4.998-5s2.242-5 4.998-5c2.757 0 5 2.243 5 5 0 1.168-.41 2.304-1.157 3.2l-.292.35-.351.293c-.896.746-2.032 1.157-3.2 1.157z" transform="translate(-282 -10) translate(3766.999 8205)"/>
            <path fill="#4b5055" d="M-3474.501-8180c1.051 0 2.074-.37 2.88-1.041l.316-.263.263-.316c.672-.806 1.042-1.829 1.042-2.88 0-2.481-2.02-4.5-4.501-4.5-2.48 0-4.498 2.019-4.498 4.5s2.018 4.5 4.498 4.5m7.416 3.414c-.128 0-.256-.049-.353-.146l-3.543-3.54c-.954.794-2.18 1.272-3.52 1.272-3.036 0-5.498-2.462-5.498-5.5s2.462-5.5 5.498-5.5c3.038 0 5.5 2.462 5.5 5.5 0 1.34-.478 2.566-1.273 3.52l3.543 3.54c.195.196.195.512 0 .708-.098.097-.226.146-.354.146z" transform="translate(-282 -10) translate(3766.999 8205)"/>
        </g>
    </g>
</svg>
