<svg xmlns="http://www.w3.org/2000/svg" width="20" height="20.408" viewBox="0 0 20 20.408">
  <g id="그룹_4808" data-name="그룹 4808" transform="translate(-586.062 -620.945)">
    <path id="패스_3240" data-name="패스 3240" d="M702.007,709.882a11.728,11.728,0,0,0-.186-2.087h-9.61v3.947H697.7a4.7,4.7,0,0,1-2.036,3.08v2.56h3.3a9.952,9.952,0,0,0,3.043-7.5Z" transform="translate(-95.945 -78.501)" fill="#3e82f1" fill-rule="evenodd"/>
    <path id="패스_3241" data-name="패스 3241" d="M606.472,755.527a9.742,9.742,0,0,0,6.753-2.472l-3.3-2.56a6.156,6.156,0,0,1-9.165-3.233h-3.409v2.644a10.2,10.2,0,0,0,9.119,5.622Z" transform="translate(-10.206 -114.174)" fill="#32a753" fill-rule="evenodd"/>
    <path id="패스_3242" data-name="패스 3242" d="M590.557,685.945a6.031,6.031,0,0,1,0-3.878v-2.644h-3.409a10.216,10.216,0,0,0,0,9.165l3.409-2.644Z" transform="translate(0 -52.858)" fill="#f9bb00" fill-rule="evenodd"/>
    <path id="패스_3243" data-name="패스 3243" d="M606.472,625a5.512,5.512,0,0,1,3.9,1.526L613.3,623.6a9.806,9.806,0,0,0-6.828-2.658,10.2,10.2,0,0,0-9.119,5.622l3.409,2.644a6.081,6.081,0,0,1,5.71-4.207Z" transform="translate(-10.206)" fill="#e74133" fill-rule="evenodd"/>
  </g>
</svg>
