<svg xmlns="http://www.w3.org/2000/svg" id="그룹_4982" width="16.286" height="20" viewBox="0 0 16.286 20">
    <defs>
        <style>
            .cls-1{fill:#231815}
        </style>
    </defs>
    <path id="패스_3244" d="M337.16 256.957a4.517 4.517 0 0 1 2.159-3.8 4.681 4.681 0 0 0-3.654-1.987c-1.559-.157-3.043.919-3.83.919s-2.01-.893-3.3-.868a4.895 4.895 0 0 0-4.139 2.5c-1.763 3.061-.453 7.6 1.269 10.078.839 1.215 1.839 2.579 3.153 2.53 1.269-.049 1.748-.819 3.279-.819s1.961.819 3.3.8c1.362-.028 2.227-1.243 3.058-2.458a11.09 11.09 0 0 0 1.386-2.847 4.412 4.412 0 0 1-2.681-4.048z" class="cls-1" transform="translate(-323.557 -246.334)"/>
    <path id="패스_3245" d="M394.081 214.127a4.386 4.386 0 0 0 1.041-3.192 4.478 4.478 0 0 0-2.944 1.514 4.19 4.19 0 0 0-1.063 3.1 3.711 3.711 0 0 0 2.966-1.422z" class="cls-1" transform="translate(-382.998 -210.935)"/>
</svg>
