<svg xmlns="http://www.w3.org/2000/svg" width="64" height="64" viewBox="0 0 64 64">
    <defs>
        <linearGradient id="o7hw2rmdia" x1=".5" x2=".5" y2="1" gradientUnits="objectBoundingBox">
            <stop offset="0" stop-color="#f03223"/>
            <stop offset="1" stop-color="#f03223" stop-opacity=".204"/>
        </linearGradient>
    </defs>
    <path fill="url(#o7hw2rmdia)" d="M6057-5750a31.8 31.8 0 0 1-12.456-2.515 31.878 31.878 0 0 1-10.171-6.858 31.883 31.883 0 0 1-6.858-10.171A31.812 31.812 0 0 1 6025-5782a31.8 31.8 0 0 1 2.515-12.456 31.87 31.87 0 0 1 6.858-10.171 31.87 31.87 0 0 1 10.171-6.858A31.8 31.8 0 0 1 6057-5814a31.809 31.809 0 0 1 12.457 2.515 31.883 31.883 0 0 1 10.171 6.858 31.878 31.878 0 0 1 6.858 10.171A31.8 31.8 0 0 1 6089-5782a31.812 31.812 0 0 1-2.515 12.457 31.888 31.888 0 0 1-6.858 10.171 31.888 31.888 0 0 1-10.171 6.858A31.809 31.809 0 0 1 6057-5750zm0-55a22.85 22.85 0 0 0-8.952 1.808 22.931 22.931 0 0 0-7.312 4.929 22.933 22.933 0 0 0-4.929 7.311A22.85 22.85 0 0 0 6034-5782a22.855 22.855 0 0 0 1.808 8.953 22.925 22.925 0 0 0 4.929 7.311 22.922 22.922 0 0 0 7.312 4.929A22.853 22.853 0 0 0 6057-5759a22.858 22.858 0 0 0 8.953-1.807 22.933 22.933 0 0 0 7.311-4.929 22.933 22.933 0 0 0 4.929-7.311A22.858 22.858 0 0 0 6080-5782a22.853 22.853 0 0 0-1.807-8.952 22.933 22.933 0 0 0-4.929-7.311 22.929 22.929 0 0 0-7.311-4.929A22.855 22.855 0 0 0 6057-5805z" transform="translate(-6025 5814)"/>
</svg>
