<svg xmlns="http://www.w3.org/2000/svg" width="150" height="36.5" viewBox="0 0 150 36.5">
    <defs>
        <style>
            .cls-2{fill:#6a6a6a}
        </style>
    </defs>
    <g id="로고" transform="translate(-1349.237 -1213.221)">
        <path id="패스_3233" fill="#4ca223" d="M1356.743 1223.7h-7.506l1.1-10.484h7.507z"/>
        <path id="패스_3234" d="M1426.736 1235.938l-.407 3.876h14.988l-.626 5.952H1425.7l-.415 3.944h16l-.627 5.955h-20.464l2.708-25.679h20.5l-.626 5.952z" class="cls-2" transform="translate(-36.606 -5.944)"/>
        <path id="패스_3235" d="M1496.766 1253.273a5.244 5.244 0 0 1-4.215 2.393h-16.6l.626-5.955h16.6c.622 0 1-.657 1.143-1.971s-.1-1.973-.728-1.973h-12.075a4.077 4.077 0 0 1-3.712-2.39 8.89 8.89 0 0 1-.917-5.475 10.876 10.876 0 0 1 2.119-5.577 5.162 5.162 0 0 1 4.172-2.339h16.6l-.625 5.952h-16.6q-.938 0-1.142 1.964-.2 1.913.732 1.912h12.075a4.073 4.073 0 0 1 3.711 2.39 9.489 9.489 0 0 1 .872 5.535 11.189 11.189 0 0 1-2.036 5.534z" class="cls-2" transform="translate(-65.374 -5.944)"/>
        <path id="패스_3236" d="M1549.906 1235.938l-2.081 19.728h-4.465l2.08-19.728h-8.67l.625-5.952h21.812l-.626 5.952z" class="cls-2" transform="translate(-96.75 -5.944)"/>
        <path id="패스_3237" d="M1590.183 1255.665l2.706-25.679h4.463l-2.706 25.679z" class="cls-2" transform="translate(-124.306 -5.944)"/>
        <path id="패스_3238" d="M1627.183 1255.665l-9.735-17.3-1.843 17.3h-4.462l2.7-25.679h4.464l9.771 17.151 1.808-17.151h4.466l-2.709 25.679z" class="cls-2" transform="translate(-135.119 -5.944)"/>
        <path id="패스_3239" d="M1385.294 1237.082a8.025 8.025 0 0 0-.829-4.9 4.165 4.165 0 0 0-3.8-2.2h-13.825l-.619 5.873h-4.492l-2.088 19.806h18.653a5.315 5.315 0 0 0 4.268-2.189 9.155 9.155 0 0 0 1.9-4.875q.419-3.975-1.732-5.918a8.571 8.571 0 0 0 2.564-5.597zm-5.223 10.693q-.2 1.936-1.177 1.936h-14.166l.409-3.873h14.163c.651-.001.909.643.77 1.937zm.7-9.866q-.21 1.974-1.181 1.973h-13.831l.416-3.944h13.831q.975 0 .769 1.971z" class="cls-2" transform="translate(-5.364 -5.944)"/>
    </g>
</svg>
